<?xml version="1.0" encoding="UTF-8"?>
<svg width="43px" height="12px" viewBox="0 0 43 12" version="1.1" xmlns="http://www.w3.org/2000/svg" xmlns:xlink="http://www.w3.org/1999/xlink">
    <title>Group Copy 2</title>
    <g id="draft" stroke="none" stroke-width="1" fill="none" fill-rule="evenodd">
        <g id="benefits-2" transform="translate(-654.000000, -56.000000)" fill-rule="nonzero">
            <g id="Group-12" transform="translate(549.000000, 30.000000)">
                <g id="Group-11" transform="translate(31.000000, 24.000000)">
                    <g id="PayPal" transform="translate(74.000000, 2.000000)">
                        <path d="M5.11016129,0.265645069 L1.80096774,0.265645069 C1.57463231,0.265502402 1.38187354,0.430137691 1.3466129,0.653709677 L0.00822580645,9.13935484 C-0.00422639578,9.21904356 0.0188275259,9.30018983 0.0713175926,9.36142824 C0.123807659,9.42266665 0.200473368,9.45785995 0.281129032,9.45774223 L1.86096774,9.45774223 C2.08745992,9.45784733 2.28027592,9.29295782 2.31532258,9.06919355 L2.67629032,6.78048387 C2.71130861,6.55690068 2.90385242,6.3920684 3.13016129,6.39193548 L4.17774194,6.39193548 C6.35758065,6.39193548 7.61564516,5.33709677 7.94419355,3.24677419 C8.09225806,2.33225806 7.95048387,1.61370968 7.52225806,1.11048387 C7.05193548,0.557903226 6.21774194,0.265645069 5.11016129,0.265645069 L5.11016129,0.265645069 Z M5.49193548,3.36483871 C5.31096774,4.55225806 4.40370968,4.55225806 3.52645161,4.55225806 L3.02709677,4.55225806 L3.37741935,2.33467742 C3.39860708,2.20064512 3.51414207,2.10193548 3.64983871,2.10193548 L3.87870968,2.10193548 C4.47629032,2.10193548 5.04,2.10193548 5.33129032,2.44258065 C5.505,2.64580645 5.55822581,2.94774194 5.49193548,3.36483871 L5.49193548,3.36483871 Z M15.0019355,3.3266129 L13.4172581,3.3266129 C13.2815614,3.32661502 13.1660264,3.42532254 13.1448387,3.55935484 L13.0746774,4.00258065 L12.963871,3.84193548 C12.6208065,3.34403226 11.8558065,3.17758065 11.0922581,3.17758065 C9.34112903,3.17758065 7.84548387,4.50387097 7.55419355,6.36435484 C7.40274194,7.29241935 7.61806452,8.17983871 8.14451613,8.79870968 C8.62741935,9.36774194 9.3183871,9.60483871 10.1404839,9.60483871 C11.5514516,9.60483871 12.333871,8.69758065 12.333871,8.69758065 L12.2632258,9.13790323 C12.250486,9.21757568 12.2732725,9.29883138 12.3255818,9.36026218 C12.377891,9.42169297 12.4544768,9.45713778 12.5351613,9.45725806 L13.9625806,9.45725806 C14.1890728,9.45736345 14.3818888,9.29247395 14.4169355,9.06870968 L15.2733871,3.645 C15.2861447,3.56550227 15.2634012,3.48440852 15.211164,3.42313925 C15.1589268,3.36186997 15.0824504,3.32658801 15.0019355,3.3266129 L15.0019355,3.3266129 Z M12.7930645,6.41080645 C12.6401613,7.31612903 11.9216129,7.92387097 11.0051613,7.92387097 C10.545,7.92387097 10.1772581,7.77629032 9.94112903,7.4966129 C9.70693548,7.21887097 9.61790323,6.82354839 9.69241935,6.38322581 C9.83516129,5.48564516 10.5658065,4.85806452 11.4682258,4.85806452 C11.9182258,4.85806452 12.2840323,5.00758065 12.525,5.28967742 C12.7664516,5.57467742 12.8622581,5.97241935 12.7930645,6.41080645 L12.7930645,6.41080645 Z M23.4416129,3.32661193 L21.8491935,3.32661193 C21.696725,3.32685426 21.5542105,3.40236705 21.4683871,3.5283871 L19.2720968,6.76354839 L18.341129,3.65467742 C18.2824529,3.45998757 18.1031784,3.32671115 17.8998387,3.32661193 L16.335,3.32661193 C16.2458768,3.32637591 16.1621319,3.36921922 16.1101755,3.44163156 C16.0582192,3.51404391 16.0444558,3.60709941 16.0732258,3.69145161 L17.8272581,8.83887097 L16.1782258,11.1667742 C16.1184812,11.250916 16.1107064,11.361371 16.1580751,11.4530523 C16.2054438,11.5447337 16.3000306,11.6022585 16.4032258,11.6022585 L17.9937097,11.6022585 C18.1444447,11.6024657 18.2856829,11.5286819 18.3716129,11.4048387 L23.6680645,3.75967742 C23.7265757,3.67537304 23.7334437,3.5655542 23.6858921,3.4746167 C23.6383404,3.38367921 23.5442325,3.32661193 23.4416129,3.32661193 L23.4416129,3.32661193 Z" id="Shape" fill="#253B80"></path>
                        <path d="M28.713871,0.265645161 L25.4041935,0.265645161 C25.1780414,0.265740569 24.9855547,0.430318741 24.9503226,0.653709677 L23.6119355,9.13935484 C23.5993374,9.21890637 23.6222054,9.29998519 23.6745147,9.36122981 C23.7268239,9.42247443 23.8033281,9.45774194 23.883871,9.45774194 L25.5822581,9.45774194 C25.7405486,9.45750986 25.8751604,9.34218695 25.8996774,9.18580645 L26.2795161,6.78048387 C26.3145344,6.55690068 26.5070782,6.3920684 26.7333871,6.39193548 L27.7804839,6.39193548 C29.9608065,6.39193548 31.2183871,5.33709677 31.5474194,3.24677419 C31.6959677,2.33225806 31.5532258,1.61370968 31.125,1.11048387 C30.6551613,0.557903226 29.8214516,0.265645161 28.713871,0.265645161 L28.713871,0.265645161 Z M29.0956452,3.36483871 C28.9151613,4.55225806 28.0079032,4.55225806 27.1301613,4.55225806 L26.6312903,4.55225806 L26.9820968,2.33467742 C27.0028762,2.20061411 27.1183682,2.10176774 27.2540323,2.10193527 L27.4829032,2.10193527 C28.08,2.10193527 28.6441935,2.10193527 28.9354839,2.44258065 C29.1091935,2.64580645 29.1619355,2.94774194 29.0956452,3.36483871 L29.0956452,3.36483871 Z M38.6051613,3.3266129 L37.0214516,3.3266129 C36.8857118,3.32623952 36.7701041,3.42518493 36.7495161,3.55935484 L36.6793548,4.00258065 L36.5680645,3.84193548 C36.225,3.34403226 35.4604839,3.17758065 34.6969355,3.17758065 C32.9458065,3.17758065 31.4506452,4.50387097 31.1593548,6.36435484 C31.0083871,7.29241935 31.2227419,8.17983871 31.7491935,8.79870968 C32.2330645,9.36774194 32.9230645,9.60483871 33.7451613,9.60483871 C35.156129,9.60483871 35.9385484,8.69758065 35.9385484,8.69758065 L35.8679032,9.13790323 C35.8551367,9.21774267 35.8780463,9.29916295 35.9305731,9.36063048 C35.9830999,9.422098 36.0599529,9.45742123 36.1408065,9.45725806 L37.5677419,9.45725806 C37.7940508,9.45712515 37.9865946,9.29229287 38.0216129,9.06870968 L38.8785484,3.645 C38.8908418,3.56525781 38.8676639,3.48412615 38.8151017,3.4229121 C38.7625395,3.36169805 38.6858455,3.32651868 38.6051613,3.3266129 L38.6051613,3.3266129 Z M36.3962903,6.41080645 C36.2443548,7.31612903 35.5248387,7.92387097 34.6083871,7.92387097 C34.1491935,7.92387097 33.7804839,7.77629032 33.5443548,7.4966129 C33.3101613,7.21887097 33.2220968,6.82354839 33.2956452,6.38322581 C33.4393548,5.48564516 34.1690323,4.85806452 35.0714516,4.85806452 C35.5214516,4.85806452 35.8872581,5.00758065 36.1282258,5.28967742 C36.3706452,5.57467742 36.4664516,5.97241935 36.3962903,6.41080645 L36.3962903,6.41080645 Z M40.4733871,0.498387097 L39.1151613,9.13935484 C39.1025632,9.21890637 39.1254312,9.29998519 39.1777405,9.36122981 C39.2300497,9.42247443 39.3065539,9.45774194 39.3870968,9.45774194 L40.7525806,9.45774194 C40.9795161,9.45774194 41.1720968,9.29322581 41.2069355,9.06919355 L42.5462903,0.584032258 C42.5588731,0.504435091 42.5360145,0.423316213 42.4837235,0.361999915 C42.4314325,0.300683617 42.3549403,0.265303904 42.2743548,0.26516129 L40.7453226,0.26516129 C40.6097279,0.265641418 40.4945211,0.364448644 40.4733871,0.498387097 L40.4733871,0.498387097 Z" id="Shape" fill="#179BD7"></path>
                    </g>
                </g>
            </g>
        </g>
    </g>
</svg>